<svg xmlns="http://www.w3.org/2000/svg" width="512" height="512" viewBox="0 0 512 512">
  <defs>
    <linearGradient id="g" x1="0" y1="0" x2="1" y2="1">
      <stop offset="0" stop-color="#7c3aed"/>
      <stop offset="1" stop-color="#d946ef"/>
    </linearGradient>
    <filter id="s" x="-30%" y="-30%" width="160%" height="160%">
      <feDropShadow dx="0" dy="10" stdDeviation="18" flood-color="#7c3aed" flood-opacity=".35"/>
    </filter>
  </defs>
  <rect x="36" y="36" width="440" height="440" rx="96" fill="#0b1220"/>
  <rect x="76" y="92" width="360" height="328" rx="64" fill="#0f172a" stroke="rgba(255,255,255,.10)" stroke-width="2" filter="url(#s)"/>
  <path d="M176 162h124c34 0 60 26 60 60v0c0 34-26 60-60 60H176z" fill="url(#g)" opacity=".95"/>
  <path d="M176 322h112c20 0 36 16 36 36v0c0 20-16 36-36 36H176z" fill="url(#g)" opacity=".65"/>
  <path d="M176 162v280" stroke="rgba(255,255,255,.18)" stroke-width="10" stroke-linecap="round"/>
  <path d="M350 218c22 10 36 30 36 54s-14 44-36 54" fill="none" stroke="rgba(255,255,255,.75)" stroke-width="12" stroke-linecap="round"/>
  <path d="M378 196c34 18 56 44 56 76s-22 58-56 76" fill="none" stroke="rgba(255,255,255,.45)" stroke-width="10" stroke-linecap="round"/>
</svg>

